# xmcd
#
# Track frame offsets:
#        150
#        16345
#        33860
#        50825
#        68125
#        85932
#        98880
#        117912
#        130720
#        147297
#        163325
#        177730
#        194217
#        209077
#        221055
#        240672
#
# Disc length: 3427 seconds
#
# Revision: 0
# Processed by: cddbd v1.5.1PL2 Copyright (c) Steve Scherf et al.
# Submitted via: ExactAudioCopy v0.95b3
#
DISCID=fb0d6110
DTITLE=Kenny Rogers - Greatest Hits
DYEAR=1900
DGENRE=Country
TTITLE0=Lucille
TTITLE1=Lady
TTITLE2=Love Lifted Me
TTITLE3=We've Got Tonight
TTITLE4=Scarlet Fever
TTITLE5=Love Or Something Like That
TTITLE6=She Believes In Me
TTITLE7=Ruby Don't Take Your Love To Town
TTITLE8=Don't Fall In Love With a Dreamer
TTITLE9=The Gambler
TTITLE10=Daytime Friends
TTITLE11=You Decorated My Life
TTITLE12='Til I Can Make It On My Own
TTITLE13=Reuben James
TTITLE14=Coward Of The Country
TTITLE15=Love Will Turn You Around
EXTD=
EXTT0=
EXTT1=
EXTT2=
EXTT3=
EXTT4=
EXTT5=
EXTT6=
EXTT7=
EXTT8=
EXTT9=
EXTT10=
EXTT11=
EXTT12=
EXTT13=
EXTT14=
EXTT15=
PLAYORDER=
